<svg width="34" height="34" viewBox="0 0 34 34" fill="none" xmlns="http://www.w3.org/2000/svg">
<path d="M17 0C10.3601 0 4.95833 5.40175 4.95833 12.0417C4.95833 23.6838 16.0636 33.4192 16.5367 33.8272C16.6699 33.9419 16.8342 34 17 34C17.1657 34 17.3301 33.9419 17.4632 33.8272C17.935 33.4178 29.0417 23.6824 29.0417 12.0417C29.0417 5.40175 23.6399 0 17 0ZM23.3212 12.3122C23.2121 12.5772 22.9528 12.75 22.6667 12.75H21.9583V17.7083C21.9583 18.0993 21.641 18.4167 21.25 18.4167H18.4167C18.0257 18.4167 17.7083 18.0993 17.7083 17.7083V14.1667H16.2917V17.7083C16.2917 18.0993 15.9743 18.4167 15.5833 18.4167H12.75C12.359 18.4167 12.0417 18.0993 12.0417 17.7083V12.75H11.3333C11.0472 12.75 10.7879 12.5772 10.6788 12.3122C10.5683 12.0473 10.6292 11.7427 10.8318 11.5402L16.4985 5.8735C16.7747 5.59725 17.2238 5.59725 17.5001 5.8735L23.1667 11.5402C23.3708 11.7442 23.4317 12.0473 23.3212 12.3122Z" fill="white"/>
</svg>
