<svg width="98" height="98" viewBox="0 0 98 98" fill="none" xmlns="http://www.w3.org/2000/svg">
<path d="M36.5 19.3484H33.375C32.5125 19.3484 31.8125 18.6469 31.8125 17.7859H28.6875C28.6875 20.3703 30.7906 22.4734 33.375 22.4734H36.5C39.0844 22.4734 41.1875 20.3703 41.1875 17.7859C41.1875 15.2016 39.0844 13.0984 36.5 13.0984H33.375C32.5125 13.0984 31.8125 12.3969 31.8125 11.5359C31.8125 10.675 32.5125 9.97343 33.375 9.97343H36.5C37.3625 9.97343 38.0625 10.675 38.0625 11.5359H41.1875C41.1875 8.95156 39.0844 6.84843 36.5 6.84843H33.375C30.7906 6.84843 28.6875 8.95156 28.6875 11.5359C28.6875 14.1203 30.7906 16.2234 33.375 16.2234H36.5C37.3625 16.2234 38.0625 16.925 38.0625 17.7859C38.0625 18.6469 37.3625 19.3484 36.5 19.3484Z" fill="#F77B54"/>
<path d="M49 22.4734H53.6875V19.3484H49C48.1375 19.3484 47.4375 18.6469 47.4375 17.7859V16.2234H53.6875V13.0984H47.4375V11.5359C47.4375 10.675 48.1375 9.97343 49 9.97343H53.6875V6.84843H49C46.4156 6.84843 44.3125 8.95156 44.3125 11.5359V17.7859C44.3125 20.3703 46.4156 22.4734 49 22.4734Z" fill="#F77B54"/>
<path d="M61.5 22.4734H64.625C67.2094 22.4734 69.3125 20.3703 69.3125 17.7859V11.5359C69.3125 8.95156 67.2094 6.84843 64.625 6.84843H61.5C58.9156 6.84843 56.8125 8.95156 56.8125 11.5359V17.7859C56.8125 20.3703 58.9156 22.4734 61.5 22.4734ZM59.9375 11.5359C59.9375 10.675 60.6375 9.97343 61.5 9.97343H64.625C65.4875 9.97343 66.1875 10.675 66.1875 11.5359V17.7859C66.1875 18.6469 65.4875 19.3484 64.625 19.3484H61.5C60.6375 19.3484 59.9375 18.6469 59.9375 17.7859V11.5359Z" fill="#F77B54"/>
<path d="M97.4375 34.9375H91.1875V30.25C91.1875 25.9422 87.6828 22.4375 83.375 22.4375H75.5625V5.28593C75.5625 2.70156 73.4594 0.598434 70.875 0.598434H27.125C24.5406 0.598434 22.4375 2.70156 22.4375 5.28593V22.4375H14.625C10.3172 22.4375 6.8125 25.9422 6.8125 30.25V39.7531C3.08281 41.9187 0.5625 45.9484 0.5625 50.5625C0.5625 55.1766 3.08281 59.2062 6.8125 61.3719V74C6.8125 78.3078 10.3172 81.8125 14.625 81.8125H33.375V88.0625H31.8125C27.5047 88.0625 24 91.5672 24 95.875V97.4375H74V95.875C74 91.5672 70.4953 88.0625 66.1875 88.0625H64.625V81.8125H83.375C87.6828 81.8125 91.1875 78.3078 91.1875 74V63.0625H97.4375V34.9375ZM25.5625 5.28593C25.5625 4.425 26.2625 3.72343 27.125 3.72343H70.875C71.7375 3.72343 72.4375 4.425 72.4375 5.28593V24.0359C72.4375 24.8969 71.7375 25.5984 70.875 25.5984H54.7781L45.6141 31.6734C45.0938 32.0234 44.3125 31.6016 44.3125 30.9734V25.5984H27.125C26.2625 25.5984 25.5625 24.8969 25.5625 24.0359V5.28593ZM9.9375 30.25C9.9375 27.6656 12.0406 25.5625 14.625 25.5625H22.7141C23.3516 27.3953 25.0766 28.7234 27.125 28.7234H41.1875V30.9734C41.1875 33.1594 42.9656 34.9375 45.1516 34.9375C45.9328 34.9375 46.6891 34.7094 47.3406 34.2781L55.7203 28.7234H70.875C72.9219 28.7234 74.6484 27.3953 75.2859 25.5625H83.375C85.9594 25.5625 88.0625 27.6656 88.0625 30.25V34.9375H75.5625V49H66.1875V41.1875H56.8125V59.9375H53.6875V38.0625H44.3125V59.9375H41.1875V44.3125H31.8125V49H25.4547C24.6812 42.8437 19.425 38.0625 13.0625 38.0625C11.9812 38.0625 10.9391 38.2141 9.9375 38.4734V30.25ZM59.9375 59.9375V44.3125H63.0625V59.9375H59.9375ZM50.5625 59.9375H47.4375V41.1875H50.5625V59.9375ZM38.0625 59.9375H34.9375V47.4375H38.0625V59.9375ZM3.6875 50.5625C3.6875 45.3922 7.89219 41.1875 13.0625 41.1875C18.2328 41.1875 22.4375 45.3922 22.4375 50.5625C22.4375 55.7328 18.2328 59.9375 13.0625 59.9375C7.89219 59.9375 3.6875 55.7328 3.6875 50.5625ZM70.6078 94.3125H27.3922C28.0375 92.4938 29.775 91.1875 31.8125 91.1875H66.1875C68.225 91.1875 69.9625 92.4938 70.6078 94.3125ZM61.5 88.0625H36.5V81.8125H61.5V88.0625ZM83.375 78.6875H14.625C12.0406 78.6875 9.9375 76.5844 9.9375 74V69.3125H88.0625V74C88.0625 76.5844 85.9594 78.6875 83.375 78.6875ZM88.0625 66.1875H9.9375V62.6516C10.9391 62.9109 11.9812 63.0625 13.0625 63.0625C19.425 63.0625 24.6812 58.2812 25.4547 52.125H31.8125V59.9375H28.6875V63.0625H69.3125V59.9375H66.1875V52.125H75.5625V63.0625H88.0625V66.1875ZM94.3125 59.9375H78.6875V38.0625H94.3125V59.9375Z" fill="#F77B54"/>
<path d="M42.75 75.5625C43.6129 75.5625 44.3125 74.8629 44.3125 74C44.3125 73.1371 43.6129 72.4375 42.75 72.4375C41.8871 72.4375 41.1875 73.1371 41.1875 74C41.1875 74.8629 41.8871 75.5625 42.75 75.5625Z" fill="#F77B54"/>
<path d="M49 75.5625C49.8629 75.5625 50.5625 74.8629 50.5625 74C50.5625 73.1371 49.8629 72.4375 49 72.4375C48.1371 72.4375 47.4375 73.1371 47.4375 74C47.4375 74.8629 48.1371 75.5625 49 75.5625Z" fill="#F77B54"/>
<path d="M55.25 75.5625C56.1129 75.5625 56.8125 74.8629 56.8125 74C56.8125 73.1371 56.1129 72.4375 55.25 72.4375C54.3871 72.4375 53.6875 73.1371 53.6875 74C53.6875 74.8629 54.3871 75.5625 55.25 75.5625Z" fill="#F77B54"/>
<path d="M19.3125 50.5625C19.3125 47.1156 16.5094 44.3125 13.0625 44.3125C9.61562 44.3125 6.8125 47.1156 6.8125 50.5625C6.8125 54.0094 9.61562 56.8125 13.0625 56.8125C16.5094 56.8125 19.3125 54.0094 19.3125 50.5625ZM9.9375 50.5625C9.9375 48.8391 11.3391 47.4375 13.0625 47.4375C14.7859 47.4375 16.1875 48.8391 16.1875 50.5625C16.1875 52.2859 14.7859 53.6875 13.0625 53.6875C11.3391 53.6875 9.9375 52.2859 9.9375 50.5625Z" fill="#F77B54"/>
<path d="M81.8125 41.1875H91.1875V44.3125H81.8125V41.1875Z" fill="#F77B54"/>
<path d="M81.8125 47.4375H91.1875V50.5625H81.8125V47.4375Z" fill="#F77B54"/>
<path d="M81.8125 53.6875H91.1875V56.8125H81.8125V53.6875Z" fill="#F77B54"/>
</svg>
